<mxfile host="app.diagrams.net" modified="2020-07-29T13:43:27.239Z" agent="5.0 (Macintosh; Intel Mac OS X 10_15_5) AppleWebKit/537.36 (KHTML, like Gecko) Chrome/84.0.4147.89 Safari/537.36" etag="aZOMRyx9SR7QayZbFsYC" version="13.5.5" type="github">
  <diagram id="6OkjwPD8tsjs0LjA3oMV" name="Page-1">
    <mxGraphModel dx="746" dy="971" grid="1" gridSize="10" guides="1" tooltips="1" connect="1" arrows="1" fold="1" page="1" pageScale="1" pageWidth="827" pageHeight="1169" math="0" shadow="0">
      <root>
        <mxCell id="0" />
        <mxCell id="1" parent="0" />
        <mxCell id="XMA3EOqSwQoMvlcT-vwr-13" value="" style="rounded=0;whiteSpace=wrap;html=1;fillColor=#bac8d3;strokeColor=#23445d;" vertex="1" parent="1">
          <mxGeometry x="239" y="360" width="320" height="60" as="geometry" />
        </mxCell>
        <mxCell id="XMA3EOqSwQoMvlcT-vwr-14" style="edgeStyle=orthogonalEdgeStyle;rounded=0;orthogonalLoop=1;jettySize=auto;html=1;entryX=0;entryY=0.5;entryDx=0;entryDy=0;" edge="1" parent="1" source="XMA3EOqSwQoMvlcT-vwr-15" target="XMA3EOqSwQoMvlcT-vwr-17">
          <mxGeometry relative="1" as="geometry" />
        </mxCell>
        <mxCell id="XMA3EOqSwQoMvlcT-vwr-15" value="P" style="ellipse;whiteSpace=wrap;html=1;aspect=fixed;fillColor=#e1d5e7;strokeColor=#9673a6;" vertex="1" parent="1">
          <mxGeometry x="269" y="365" width="50" height="50" as="geometry" />
        </mxCell>
        <mxCell id="XMA3EOqSwQoMvlcT-vwr-16" style="edgeStyle=orthogonalEdgeStyle;rounded=0;orthogonalLoop=1;jettySize=auto;html=1;entryX=0;entryY=0.5;entryDx=0;entryDy=0;" edge="1" parent="1" source="XMA3EOqSwQoMvlcT-vwr-17" target="XMA3EOqSwQoMvlcT-vwr-19">
          <mxGeometry relative="1" as="geometry" />
        </mxCell>
        <mxCell id="XMA3EOqSwQoMvlcT-vwr-17" value="P" style="ellipse;whiteSpace=wrap;html=1;aspect=fixed;fillColor=#e1d5e7;strokeColor=#9673a6;" vertex="1" parent="1">
          <mxGeometry x="339" y="365" width="50" height="50" as="geometry" />
        </mxCell>
        <mxCell id="XMA3EOqSwQoMvlcT-vwr-18" style="edgeStyle=orthogonalEdgeStyle;rounded=0;orthogonalLoop=1;jettySize=auto;html=1;entryX=0;entryY=0.5;entryDx=0;entryDy=0;" edge="1" parent="1" source="XMA3EOqSwQoMvlcT-vwr-19" target="XMA3EOqSwQoMvlcT-vwr-20">
          <mxGeometry relative="1" as="geometry" />
        </mxCell>
        <mxCell id="XMA3EOqSwQoMvlcT-vwr-19" value="P" style="ellipse;whiteSpace=wrap;html=1;aspect=fixed;fillColor=#e1d5e7;strokeColor=#9673a6;" vertex="1" parent="1">
          <mxGeometry x="409" y="365" width="50" height="50" as="geometry" />
        </mxCell>
        <mxCell id="XMA3EOqSwQoMvlcT-vwr-56" style="edgeStyle=orthogonalEdgeStyle;rounded=0;orthogonalLoop=1;jettySize=auto;html=1;entryX=0;entryY=0.5;entryDx=0;entryDy=0;" edge="1" parent="1" source="XMA3EOqSwQoMvlcT-vwr-20" target="XMA3EOqSwQoMvlcT-vwr-22">
          <mxGeometry relative="1" as="geometry" />
        </mxCell>
        <mxCell id="XMA3EOqSwQoMvlcT-vwr-20" value="P" style="ellipse;whiteSpace=wrap;html=1;aspect=fixed;fillColor=#e1d5e7;strokeColor=#9673a6;" vertex="1" parent="1">
          <mxGeometry x="479" y="365" width="50" height="50" as="geometry" />
        </mxCell>
        <mxCell id="XMA3EOqSwQoMvlcT-vwr-22" value="" style="rounded=0;whiteSpace=wrap;html=1;fillColor=#bac8d3;strokeColor=#23445d;" vertex="1" parent="1">
          <mxGeometry x="589" y="360" width="60" height="60" as="geometry" />
        </mxCell>
        <mxCell id="XMA3EOqSwQoMvlcT-vwr-24" value="Preempted" style="text;html=1;align=center;verticalAlign=middle;resizable=0;points=[];autosize=1;" vertex="1" parent="1">
          <mxGeometry x="490" y="450" width="70" height="20" as="geometry" />
        </mxCell>
        <mxCell id="XMA3EOqSwQoMvlcT-vwr-25" value="" style="rounded=0;whiteSpace=wrap;html=1;fillColor=#bac8d3;strokeColor=#23445d;" vertex="1" parent="1">
          <mxGeometry x="240" y="470" width="320" height="60" as="geometry" />
        </mxCell>
        <mxCell id="XMA3EOqSwQoMvlcT-vwr-26" style="edgeStyle=orthogonalEdgeStyle;rounded=0;orthogonalLoop=1;jettySize=auto;html=1;entryX=0;entryY=0.5;entryDx=0;entryDy=0;" edge="1" parent="1" source="XMA3EOqSwQoMvlcT-vwr-27" target="XMA3EOqSwQoMvlcT-vwr-29">
          <mxGeometry relative="1" as="geometry" />
        </mxCell>
        <mxCell id="XMA3EOqSwQoMvlcT-vwr-27" value="P" style="ellipse;whiteSpace=wrap;html=1;aspect=fixed;fillColor=#e1d5e7;strokeColor=#9673a6;" vertex="1" parent="1">
          <mxGeometry x="270" y="475" width="50" height="50" as="geometry" />
        </mxCell>
        <mxCell id="XMA3EOqSwQoMvlcT-vwr-28" style="edgeStyle=orthogonalEdgeStyle;rounded=0;orthogonalLoop=1;jettySize=auto;html=1;entryX=0;entryY=0.5;entryDx=0;entryDy=0;" edge="1" parent="1" source="XMA3EOqSwQoMvlcT-vwr-29" target="XMA3EOqSwQoMvlcT-vwr-31">
          <mxGeometry relative="1" as="geometry" />
        </mxCell>
        <mxCell id="XMA3EOqSwQoMvlcT-vwr-29" value="P" style="ellipse;whiteSpace=wrap;html=1;aspect=fixed;fillColor=#e1d5e7;strokeColor=#9673a6;" vertex="1" parent="1">
          <mxGeometry x="340" y="475" width="50" height="50" as="geometry" />
        </mxCell>
        <mxCell id="XMA3EOqSwQoMvlcT-vwr-30" style="edgeStyle=orthogonalEdgeStyle;rounded=0;orthogonalLoop=1;jettySize=auto;html=1;entryX=0;entryY=0.5;entryDx=0;entryDy=0;" edge="1" parent="1" source="XMA3EOqSwQoMvlcT-vwr-31" target="XMA3EOqSwQoMvlcT-vwr-32">
          <mxGeometry relative="1" as="geometry" />
        </mxCell>
        <mxCell id="XMA3EOqSwQoMvlcT-vwr-31" value="P" style="ellipse;whiteSpace=wrap;html=1;aspect=fixed;fillColor=#e1d5e7;strokeColor=#9673a6;" vertex="1" parent="1">
          <mxGeometry x="410" y="475" width="50" height="50" as="geometry" />
        </mxCell>
        <mxCell id="XMA3EOqSwQoMvlcT-vwr-57" style="edgeStyle=orthogonalEdgeStyle;rounded=0;orthogonalLoop=1;jettySize=auto;html=1;entryX=0;entryY=0.5;entryDx=0;entryDy=0;" edge="1" parent="1" source="XMA3EOqSwQoMvlcT-vwr-32" target="XMA3EOqSwQoMvlcT-vwr-34">
          <mxGeometry relative="1" as="geometry" />
        </mxCell>
        <mxCell id="XMA3EOqSwQoMvlcT-vwr-32" value="P" style="ellipse;whiteSpace=wrap;html=1;aspect=fixed;fillColor=#e1d5e7;strokeColor=#9673a6;" vertex="1" parent="1">
          <mxGeometry x="480" y="475" width="50" height="50" as="geometry" />
        </mxCell>
        <mxCell id="XMA3EOqSwQoMvlcT-vwr-34" value="" style="rounded=0;whiteSpace=wrap;html=1;fillColor=#bac8d3;strokeColor=#23445d;" vertex="1" parent="1">
          <mxGeometry x="590" y="470" width="60" height="60" as="geometry" />
        </mxCell>
        <mxCell id="XMA3EOqSwQoMvlcT-vwr-36" value="Preempted" style="text;html=1;align=center;verticalAlign=middle;resizable=0;points=[];autosize=1;" vertex="1" parent="1">
          <mxGeometry x="490" y="565" width="70" height="20" as="geometry" />
        </mxCell>
        <mxCell id="XMA3EOqSwQoMvlcT-vwr-37" value="" style="rounded=0;whiteSpace=wrap;html=1;fillColor=#bac8d3;strokeColor=#23445d;" vertex="1" parent="1">
          <mxGeometry x="240" y="585" width="320" height="60" as="geometry" />
        </mxCell>
        <mxCell id="XMA3EOqSwQoMvlcT-vwr-38" style="edgeStyle=orthogonalEdgeStyle;rounded=0;orthogonalLoop=1;jettySize=auto;html=1;entryX=0;entryY=0.5;entryDx=0;entryDy=0;" edge="1" parent="1" target="XMA3EOqSwQoMvlcT-vwr-41">
          <mxGeometry relative="1" as="geometry">
            <mxPoint x="320" y="615" as="sourcePoint" />
          </mxGeometry>
        </mxCell>
        <mxCell id="XMA3EOqSwQoMvlcT-vwr-40" style="edgeStyle=orthogonalEdgeStyle;rounded=0;orthogonalLoop=1;jettySize=auto;html=1;entryX=0;entryY=0.5;entryDx=0;entryDy=0;exitX=0.5;exitY=1;exitDx=0;exitDy=0;" edge="1" parent="1" source="XMA3EOqSwQoMvlcT-vwr-34" target="XMA3EOqSwQoMvlcT-vwr-43">
          <mxGeometry relative="1" as="geometry">
            <mxPoint x="390" y="615" as="sourcePoint" />
          </mxGeometry>
        </mxCell>
        <mxCell id="XMA3EOqSwQoMvlcT-vwr-42" style="edgeStyle=orthogonalEdgeStyle;rounded=0;orthogonalLoop=1;jettySize=auto;html=1;entryX=0;entryY=0.5;entryDx=0;entryDy=0;" edge="1" parent="1" source="XMA3EOqSwQoMvlcT-vwr-43" target="XMA3EOqSwQoMvlcT-vwr-44">
          <mxGeometry relative="1" as="geometry" />
        </mxCell>
        <mxCell id="XMA3EOqSwQoMvlcT-vwr-43" value="P" style="ellipse;whiteSpace=wrap;html=1;aspect=fixed;fillColor=#e1d5e7;strokeColor=#9673a6;" vertex="1" parent="1">
          <mxGeometry x="410" y="590" width="50" height="50" as="geometry" />
        </mxCell>
        <mxCell id="XMA3EOqSwQoMvlcT-vwr-58" style="edgeStyle=orthogonalEdgeStyle;rounded=0;orthogonalLoop=1;jettySize=auto;html=1;" edge="1" parent="1" source="XMA3EOqSwQoMvlcT-vwr-44" target="XMA3EOqSwQoMvlcT-vwr-46">
          <mxGeometry relative="1" as="geometry" />
        </mxCell>
        <mxCell id="XMA3EOqSwQoMvlcT-vwr-44" value="P" style="ellipse;whiteSpace=wrap;html=1;aspect=fixed;fillColor=#e1d5e7;strokeColor=#9673a6;" vertex="1" parent="1">
          <mxGeometry x="480" y="590" width="50" height="50" as="geometry" />
        </mxCell>
        <mxCell id="XMA3EOqSwQoMvlcT-vwr-46" value="" style="rounded=0;whiteSpace=wrap;html=1;fillColor=#bac8d3;strokeColor=#23445d;" vertex="1" parent="1">
          <mxGeometry x="590" y="585" width="60" height="60" as="geometry" />
        </mxCell>
        <mxCell id="XMA3EOqSwQoMvlcT-vwr-49" value="" style="endArrow=classic;html=1;dashed=1;" edge="1" parent="1">
          <mxGeometry width="50" height="50" relative="1" as="geometry">
            <mxPoint x="150" y="660" as="sourcePoint" />
            <mxPoint x="150" y="360" as="targetPoint" />
          </mxGeometry>
        </mxCell>
        <mxCell id="XMA3EOqSwQoMvlcT-vwr-50" value="High priority" style="text;html=1;align=center;verticalAlign=middle;resizable=0;points=[];autosize=1;" vertex="1" parent="1">
          <mxGeometry x="110" y="330" width="80" height="20" as="geometry" />
        </mxCell>
        <mxCell id="XMA3EOqSwQoMvlcT-vwr-53" value="Low priority" style="text;html=1;align=center;verticalAlign=middle;resizable=0;points=[];autosize=1;" vertex="1" parent="1">
          <mxGeometry x="110" y="665" width="80" height="20" as="geometry" />
        </mxCell>
        <mxCell id="XMA3EOqSwQoMvlcT-vwr-61" style="edgeStyle=orthogonalEdgeStyle;rounded=0;orthogonalLoop=1;jettySize=auto;html=1;entryX=0;entryY=0.5;entryDx=0;entryDy=0;" edge="1" parent="1" source="XMA3EOqSwQoMvlcT-vwr-54" target="XMA3EOqSwQoMvlcT-vwr-27">
          <mxGeometry relative="1" as="geometry">
            <Array as="points">
              <mxPoint x="620" y="450" />
              <mxPoint x="250" y="450" />
              <mxPoint x="250" y="500" />
            </Array>
          </mxGeometry>
        </mxCell>
        <mxCell id="XMA3EOqSwQoMvlcT-vwr-54" value="P" style="ellipse;whiteSpace=wrap;html=1;aspect=fixed;fillColor=#b1ddf0;strokeColor=#10739e;" vertex="1" parent="1">
          <mxGeometry x="595" y="365" width="50" height="50" as="geometry" />
        </mxCell>
        <mxCell id="XMA3EOqSwQoMvlcT-vwr-62" value="Longer quantum" style="text;html=1;align=center;verticalAlign=middle;resizable=0;points=[];autosize=1;" vertex="1" parent="1">
          <mxGeometry x="239" y="665" width="100" height="20" as="geometry" />
        </mxCell>
        <mxCell id="XMA3EOqSwQoMvlcT-vwr-63" value="Shorter quantum" style="text;html=1;align=center;verticalAlign=middle;resizable=0;points=[];autosize=1;" vertex="1" parent="1">
          <mxGeometry x="239" y="430" width="100" height="20" as="geometry" />
        </mxCell>
        <mxCell id="XMA3EOqSwQoMvlcT-vwr-64" value="0" style="text;html=1;align=center;verticalAlign=middle;resizable=0;points=[];autosize=1;" vertex="1" parent="1">
          <mxGeometry x="200" y="380" width="20" height="20" as="geometry" />
        </mxCell>
        <mxCell id="XMA3EOqSwQoMvlcT-vwr-65" value="1" style="text;html=1;align=center;verticalAlign=middle;resizable=0;points=[];autosize=1;" vertex="1" parent="1">
          <mxGeometry x="200" y="490" width="20" height="20" as="geometry" />
        </mxCell>
        <mxCell id="XMA3EOqSwQoMvlcT-vwr-66" value="2" style="text;html=1;align=center;verticalAlign=middle;resizable=0;points=[];autosize=1;" vertex="1" parent="1">
          <mxGeometry x="200" y="610" width="20" height="20" as="geometry" />
        </mxCell>
      </root>
    </mxGraphModel>
  </diagram>
</mxfile>
